<svg width="399" height="399" viewBox="0 0 399 399" fill="none" xmlns="http://www.w3.org/2000/svg">
<path d="M357.437 66.5H321.416V88.6667H354.666V332.5H44.3331V88.6667H77.5831V66.5H41.5623C38.9714 66.5433 36.4144 67.0966 34.0374 68.1282C31.6604 69.1599 29.5099 70.6497 27.7088 72.5126C25.9076 74.3755 24.4911 76.575 23.5402 78.9854C22.5892 81.3958 22.1224 83.97 22.1664 86.5608V334.606C22.1224 337.197 22.5892 339.771 23.5402 342.181C24.4911 344.592 25.9076 346.791 27.7088 348.654C29.5099 350.517 31.6604 352.007 34.0374 353.038C36.4144 354.07 38.9714 354.623 41.5623 354.667H357.437C360.028 354.623 362.585 354.07 364.962 353.038C367.339 352.007 369.49 350.517 371.291 348.654C373.092 346.791 374.508 344.592 375.459 342.181C376.41 339.771 376.877 337.197 376.833 334.606V86.5608C376.877 83.97 376.41 81.3958 375.459 78.9854C374.508 76.575 373.092 74.3755 371.291 72.5126C369.49 70.6497 367.339 69.1599 364.962 68.1282C362.585 67.0966 360.028 66.5433 357.437 66.5Z" fill="#AFAEAE"/>
<path d="M88.6665 155.167H110.833V177.333H88.6665V155.167Z" fill="#AFAEAE"/>
<path d="M155.167 155.167H177.334V177.333H155.167V155.167Z" fill="#AFAEAE"/>
<path d="M221.667 155.167H243.833V177.333H221.667V155.167Z" fill="#AFAEAE"/>
<path d="M288.167 155.167H310.333V177.333H288.167V155.167Z" fill="#AFAEAE"/>
<path d="M88.6665 210.583H110.833V232.75H88.6665V210.583Z" fill="#AFAEAE"/>
<path d="M155.167 210.583H177.334V232.75H155.167V210.583Z" fill="#AFAEAE"/>
<path d="M221.667 210.583H243.833V232.75H221.667V210.583Z" fill="#AFAEAE"/>
<path d="M288.167 210.583H310.333V232.75H288.167V210.583Z" fill="#AFAEAE"/>
<path d="M88.6665 266H110.833V288.167H88.6665V266Z" fill="#AFAEAE"/>
<path d="M155.167 266H177.334V288.167H155.167V266Z" fill="#AFAEAE"/>
<path d="M221.667 266H243.833V288.167H221.667V266Z" fill="#AFAEAE"/>
<path d="M288.167 266H310.333V288.167H288.167V266Z" fill="#AFAEAE"/>
<path d="M110.833 110.833C113.773 110.833 116.592 109.665 118.67 107.587C120.749 105.508 121.917 102.689 121.917 99.7498V33.2498C121.917 30.3104 120.749 27.4913 118.67 25.4127C116.592 23.3342 113.773 22.1665 110.833 22.1665C107.894 22.1665 105.075 23.3342 102.996 25.4127C100.918 27.4913 99.75 30.3104 99.75 33.2498V99.7498C99.75 102.689 100.918 105.508 102.996 107.587C105.075 109.665 107.894 110.833 110.833 110.833Z" fill="#AFAEAE"/>
<path d="M288.167 110.833C291.106 110.833 293.925 109.665 296.004 107.587C298.082 105.508 299.25 102.689 299.25 99.7498V33.2498C299.25 30.3104 298.082 27.4913 296.004 25.4127C293.925 23.3342 291.106 22.1665 288.167 22.1665C285.227 22.1665 282.408 23.3342 280.33 25.4127C278.251 27.4913 277.083 30.3104 277.083 33.2498V99.7498C277.083 102.689 278.251 105.508 280.33 107.587C282.408 109.665 285.227 110.833 288.167 110.833Z" fill="#AFAEAE"/>
<path d="M144.083 66.5H254.916V88.6667H144.083V66.5Z" fill="#AFAEAE"/>
</svg>
