<svg width="247" height="333" viewBox="0 0 247 333" fill="none" xmlns="http://www.w3.org/2000/svg">
<path d="M123.494 78.7815C114.506 78.7815 105.719 81.447 98.245 86.4408C90.7711 91.4347 84.946 98.5326 81.5062 106.837C78.0663 115.142 77.1663 124.28 78.9199 133.096C80.6735 141.912 85.002 150.01 91.358 156.366C97.7139 162.722 105.812 167.05 114.628 168.804C123.444 170.557 132.582 169.657 140.886 166.217C149.191 162.778 156.289 156.952 161.283 149.479C166.277 142.005 168.942 133.218 168.942 124.229C168.928 112.18 164.136 100.628 155.616 92.108C147.095 83.5878 135.544 78.7952 123.494 78.7815ZM123.494 146.953C119 146.953 114.607 145.62 110.87 143.123C107.133 140.626 104.22 137.077 102.5 132.925C100.78 128.773 100.33 124.204 101.207 119.796C102.084 115.388 104.248 111.339 107.426 108.161C110.604 104.983 114.653 102.819 119.061 101.942C123.469 101.065 128.038 101.515 132.19 103.235C136.343 104.955 139.892 107.868 142.389 111.604C144.885 115.341 146.218 119.735 146.218 124.229C146.211 130.254 143.815 136.03 139.555 140.29C135.295 144.55 129.519 146.946 123.494 146.953Z" fill="#AFAEAE"/>
<path d="M210.826 36.8297C189.234 15.2424 160.41 2.4186 129.918 0.833424C99.4261 -0.751752 69.4279 9.01404 45.713 28.246C21.9981 47.4779 6.24764 74.8126 1.50154 104.975C-3.24455 135.136 3.35014 165.987 20.0128 191.573L105.871 323.38C107.782 326.313 110.394 328.723 113.472 330.391C116.549 332.059 119.994 332.933 123.495 332.933C126.995 332.933 130.44 332.059 133.518 330.391C136.595 328.723 139.207 326.313 141.118 323.38L226.979 191.573C242.441 167.838 249.273 139.511 246.332 111.338C243.391 83.1651 230.856 56.8593 210.826 36.8297ZM207.94 179.169L123.495 308.801L39.0497 179.169C13.2013 139.488 18.7453 86.3854 52.2317 52.8976C61.59 43.539 72.7001 36.1153 84.9275 31.0505C97.1549 25.9856 110.26 23.3788 123.495 23.3788C136.73 23.3788 149.835 25.9856 162.063 31.0505C174.29 36.1153 185.4 43.539 194.758 52.8976C228.245 86.3854 233.788 139.488 207.94 179.169Z" fill="#AFAEAE"/>
</svg>
