<svg width="164" height="100" viewBox="0 0 164 100" fill="none" xmlns="http://www.w3.org/2000/svg">
<path d="M138.37 93.3993H129.682V15.2045C129.682 12.598 127.944 10.8604 125.338 10.8604H51.4873V2.17208H125.338C132.723 2.17208 138.37 7.81948 138.37 15.2045V93.3993Z" fill="#D7D7D7"/>
<path d="M134.026 99.9156L104.486 66.0312L111.436 59.9493L134.026 86.8831L156.615 59.9493L163.566 66.0312L134.026 99.9156Z" fill="#D7D7D7"/>
<path d="M112.306 97.7435H38.4551C31.07 97.7435 25.4226 92.0961 25.4226 84.711V6.51623H34.1109V84.711C34.1109 87.3175 35.8486 89.0552 38.4551 89.0552H112.306V97.7435Z" fill="#D7D7D7"/>
<path d="M52.3559 39.9662L29.7663 13.0325L7.17672 39.9662L0.226074 33.8844L29.7663 0L59.3066 33.8844L52.3559 39.9662Z" fill="#D7D7D7"/>
</svg>
